<?xml version="1.0" encoding="UTF-8"?>
<svg width="22px" height="20px" viewBox="0 0 22 20" version="1.1" xmlns="http://www.w3.org/2000/svg" xmlns:xlink="http://www.w3.org/1999/xlink">
    <!-- Generator: Sketch 54.1 (76490) - https://sketchapp.com -->
    <title>评论_h</title>
    <desc>Created with Sketch.</desc>
    <g id="评论_h" stroke="none" stroke-width="1" fill="none" fill-rule="evenodd">
        <g id="编组" fill="#FF594A" fill-rule="nonzero">
            <path d="M6.75,16.5 L3.25623059,18.2468847 C2.14477897,18.8026105 0.79326463,18.3521057 0.23753882,17.2406541 C0.0813264564,16.9282294 6.66133815e-16,16.583725 0,16.2344235 L0,13.5 L0,3 C0,1.34314575 1.34314575,-2.4158453e-13 3,-2.4158453e-13 L18,-2.4158453e-13 C19.6568542,-2.4158453e-13 21,1.34314575 21,3 L21,13.5 C21,15.1568542 19.6568542,16.5 18,16.5 L6.75,16.5 Z M6.5625,5.25 C6.04473305,5.25 5.625,5.66973305 5.625,6.1875 C5.625,6.70526695 6.04473305,7.125 6.5625,7.125 L14.4375,7.125 C14.955267,7.125 15.375,6.70526695 15.375,6.1875 C15.375,5.66973305 14.955267,5.25 14.4375,5.25 L6.5625,5.25 Z M8.8125,9.375 C8.29473305,9.375 7.875,9.79473305 7.875,10.3125 C7.875,10.830267 8.29473305,11.25 8.8125,11.25 L12.1875,11.25 C12.705267,11.25 13.125,10.830267 13.125,10.3125 C13.125,9.79473305 12.705267,9.375 12.1875,9.375 L8.8125,9.375 Z" id="形状结合"></path>
        </g>
    </g>
</svg>