<?xml version="1.0" encoding="UTF-8"?>
<svg width="22px" height="20px" viewBox="0 0 22 20" version="1.1" xmlns="http://www.w3.org/2000/svg" xmlns:xlink="http://www.w3.org/1999/xlink">
    <!-- Generator: Sketch 54.1 (76490) - https://sketchapp.com -->
    <title>点赞_n</title>
    <desc>Created with Sketch.</desc>
    <g id="点赞_n" stroke="none" stroke-width="1" fill="none" fill-rule="evenodd">
        <g id="icon-点赞-2" transform="translate(-4.000000, -4.000000)">
            <g id="icon/点赞">
                <g id="编组">
                    <rect id="矩形复制-2" x="0" y="0" width="30" height="30"></rect>
                    <path d="M9.93294854,10.5 L15.1377068,5.52842331 L15.1397841,5.53027405 C15.6023901,5.12242925 16.2097999,4.875 16.875,4.875 C18.3247475,4.875 19.5,6.05025253 19.5,7.5 C19.5,8.14424964 19.2679108,8.73429195 18.882781,9.19107848 L17.88357,10.5 L23.2898073,10.5 C24.532448,10.5 25.5398073,11.5073593 25.5398073,12.75 C25.5398073,12.9535215 25.5121939,13.1561021 25.4577226,13.3521987 L23.1102968,21.8029316 C22.7496136,23.1013909 21.5673665,24 20.2197431,24 L7.875,24 C6.21814575,24 4.875,22.6568542 4.875,21 L4.875,12.75 C4.875,11.5073593 5.88235931,10.5 7.125,10.5 L9.93294854,10.5 Z M16.1020912,6.68159027 L10.5342324,12 L7.125,12 C6.71078644,12 6.375,12.3357864 6.375,12.75 L6.375,21 C6.375,21.8284271 7.04657288,22.5 7.875,22.5 L20.2197431,22.5 C20.8935548,22.5 21.4846783,22.0506954 21.6650199,21.4014658 L24.0124457,12.9507329 C24.0306028,12.8853674 24.0398073,12.8178405 24.0398073,12.75 C24.0398073,12.3357864 23.7040209,12 23.2898073,12 L14.8513777,12 L17.6904847,8.28089741 L17.7359927,8.22418831 C17.9062046,8.02230698 18,7.77038602 18,7.5 C18,6.87867966 17.4963203,6.375 16.875,6.375 C16.5959522,6.375 16.336405,6.47501347 16.1317557,6.6554373 L16.1020912,6.68159027 Z" id="形状结合" fill="#000000" opacity="0.3"></path>
                    <rect id="矩形" fill="#000000" opacity="0.3" x="9" y="12" width="1.5" height="10.5"></rect>
                </g>
            </g>
        </g>
    </g>
</svg>