<?xml version="1.0" encoding="UTF-8"?>
<svg width="22px" height="20px" viewBox="0 0 22 20" version="1.1" xmlns="http://www.w3.org/2000/svg" xmlns:xlink="http://www.w3.org/1999/xlink">
    <!-- Generator: Sketch 54.1 (76490) - https://sketchapp.com -->
    <title>点赞_h</title>
    <desc>Created with Sketch.</desc>
    <g id="点赞_h" stroke="none" stroke-width="1" fill="none" fill-rule="evenodd">
        <g id="icon-点赞-2" fill="#FF594A">
            <g id="编组">
                <path d="M6.5,5.95835336 L11.1377068,1.52842331 L11.1397841,1.53027405 C11.6023901,1.12242925 12.2097999,0.875 12.875,0.875 C14.3247475,0.875 15.5,2.05025253 15.5,3.5 C15.5,4.14424964 15.2679108,4.73429195 14.882781,5.19107848 L13.88357,6.5 L19.2898073,6.5 C20.532448,6.5 21.5398073,7.50735931 21.5398073,8.75 C21.5398073,8.9535215 21.5121939,9.15610208 21.4577226,9.35219869 L19.1102968,17.8029316 C18.7496136,19.1013909 17.5673665,20 16.2197431,20 L6.5,20 L6.5,5.95835336 Z M5,20 L3.875,20 C2.21814575,20 0.875,18.6568542 0.875,17 L0.875,8.75 C0.875,7.50735931 1.88235931,6.5 3.125,6.5 L5,6.5 L5,20 Z" id="形状结合"></path>
            </g>
        </g>
    </g>
</svg>