<?xml version="1.0" encoding="UTF-8"?>
<svg width="14px" height="14px" viewBox="0 0 14 14" version="1.1" xmlns="http://www.w3.org/2000/svg" xmlns:xlink="http://www.w3.org/1999/xlink">
    <!-- Generator: Sketch 54.1 (76490) - https://sketchapp.com -->
    <title>手机圈</title>
    <desc>Created with Sketch.</desc>
    <g id="4个底Tab页" stroke="none" stroke-width="1" fill="none" fill-rule="evenodd" opacity="0.3">
        <g id="01广场" transform="translate(-573.000000, -2316.000000)" fill="#000000">
            <g id="卡片5" transform="translate(485.000000, 2109.000000)">
                <g id="手机圈" transform="translate(88.000000, 207.000000)">
                    <path d="M9.80639959,13.5308724 L9.80927344,13.538241 C8.43547034,14.0474165 6.88899158,14.1565946 5.35942541,13.759803 C1.50326222,12.7594586 -0.785156356,8.92205237 0.248099455,5.18871623 C1.28135527,1.4553801 5.24501251,-0.760147445 9.1011757,0.240196957 C11.3731413,0.829577631 13.100895,2.40378882 13.9257205,4.36130571 L13.9247496,4.3616166 C14.0026505,4.52875059 14.0236548,4.72199524 13.9708118,4.9129262 C13.8492523,5.35214221 13.3829397,5.61279251 12.9292734,5.49510493 C12.6116912,5.41271951 12.3844938,5.16676944 12.3184682,4.87595588 L12.3059799,4.8799547 C11.6589392,3.43059174 10.3586284,2.271136 8.66096978,1.83073885 C5.71213911,1.0657696 2.6811071,2.75999655 1.8909703,5.61490065 C1.1008335,8.46980475 2.85080065,11.4042919 5.79963132,12.1692612 C6.97151159,12.4732638 8.15637397,12.3888837 9.20841513,11.997619 L9.21010137,12.0019426 C9.39287633,11.908766 9.61098436,11.8794279 9.82624517,11.9352697 C10.2799114,12.0529572 10.5491371,12.5044168 10.4275776,12.9436328 C10.3442193,13.2448214 10.0987438,13.462041 9.80639959,13.5308724 Z M13,10.6 C12.4477153,10.6 12,10.1522847 12,9.6 C12,9.04771525 12.4477153,8.6 13,8.6 C13.5522847,8.6 14,9.04771525 14,9.6 C14,10.1522847 13.5522847,10.6 13,10.6 Z" id="形状结合"></path>
                </g>
            </g>
        </g>
    </g>
</svg>