<?xml version="1.0" encoding="UTF-8"?>
<svg width="14px" height="14px" viewBox="0 0 14 14" version="1.1" xmlns="http://www.w3.org/2000/svg" xmlns:xlink="http://www.w3.org/1999/xlink">
    <!-- Generator: Sketch 54.1 (76490) - https://sketchapp.com -->
    <title>#号</title>
    <desc>Created with Sketch.</desc>
    <g id="4个底Tab页" stroke="none" stroke-width="1" fill="none" fill-rule="evenodd" opacity="0.3">
        <g id="01广场" transform="translate(-485.000000, -2316.000000)" fill="#000000">
            <g id="卡片5" transform="translate(485.000000, 2109.000000)">
                <g id="#号" transform="translate(0.000000, 207.000000)">
                    <path d="M4.63231485,4 L5.1977313,0.815925128 C5.28155203,0.343898736 5.69189911,2.45068179e-11 6.17131003,2.45068473e-11 C6.55487084,2.45068708e-11 6.86580832,0.310937473 6.86580832,0.694498285 C6.86580832,0.735209207 6.86222867,0.77584129 6.85511073,0.815925128 L6.28969428,4 L8.77576664,4 L9.34118379,0.815926447 C9.42500481,0.34389926 9.83535263,3.03101757e-11 10.3147644,3.03102051e-11 C10.6983257,3.03102286e-11 11.0092636,0.310937901 11.0092636,0.69449924 C11.0092636,0.735210286 11.005684,0.77584249 10.998566,0.815926447 L10.4331488,4 L13.1428571,4 C13.6162441,4 14,4.38375593 14,4.85714286 C14,5.33052979 13.6162441,5.71428571 13.1428571,5.71428571 L10.1287317,5.71428571 L9.67210598,8.28571429 L12.3193277,8.28571429 C12.7927147,8.28571429 13.1764706,8.66947021 13.1764706,9.14285714 C13.1764706,9.61624407 12.7927147,10 12.3193277,10 L9.36768885,10 L8.80227169,13.1840736 C8.71845068,13.6561007 8.30810285,14 7.8286911,14 C7.44512976,14 7.13419186,13.6890621 7.13419186,13.3055008 C7.13419186,13.2647897 7.13777152,13.2241575 7.1448895,13.1840736 L7.71030665,10 L5.22423607,10 L4.65881962,13.1840749 C4.57499889,13.6561013 4.16465181,14 3.68524089,14 C3.30168008,14 2.9907426,13.6890625 2.9907426,13.3055017 C2.9907426,13.2647908 2.99432225,13.2241587 3.0014402,13.1840749 L3.56685664,10 L0.857142857,10 C0.383755929,10 5.79731787e-17,9.61624407 0,9.14285714 C-5.79731787e-17,8.66947021 0.383755929,8.28571429 0.857142857,8.28571429 L3.87127327,8.28571429 L4.32789822,5.71428571 L1.68067227,5.71428571 C1.20728534,5.71428571 0.823529412,5.33052979 0.823529412,4.85714286 C0.823529412,4.38375593 1.20728534,4 1.68067227,4 L4.63231485,4 Z M8.4713495,5.71428571 L5.98527765,5.71428571 L5.5286527,8.28571429 L8.01472379,8.28571429 L8.4713495,5.71428571 Z"></path>
                </g>
            </g>
        </g>
    </g>
</svg>