<?xml version="1.0" encoding="UTF-8"?>
<svg width="22px" height="20px" viewBox="0 0 22 20" version="1.1" xmlns="http://www.w3.org/2000/svg" xmlns:xlink="http://www.w3.org/1999/xlink">
    <!-- Generator: Sketch 54.1 (76490) - https://sketchapp.com -->
    <title>评论</title>
    <desc>Created with Sketch.</desc>
    <g id="评论" stroke="none" stroke-width="1" fill="none" fill-rule="evenodd">
        <rect fill="#FFFFFF" opacity="0" x="0" y="0" width="22" height="20"></rect>
        <g id="编组" fill="#000000">
            <rect id="矩形" opacity="0.3" x="5.625" y="5.25" width="9.75" height="1.875" rx="0.9375"></rect>
            <rect id="矩形复制-8" opacity="0.3" x="7.875" y="9.375" width="5.25" height="1.875" rx="0.9375"></rect>
            <path d="M6.75,16.5 L3.25623059,18.2468847 C2.14477897,18.8026105 0.79326463,18.3521057 0.23753882,17.2406541 C0.0813264564,16.9282294 6.66133815e-16,16.583725 0,16.2344235 L0,13.5 L0,3 C0,1.34314575 1.34314575,2.14939178e-13 3,2.14939178e-13 L18,2.14939178e-13 C19.6568542,2.14939178e-13 21,1.34314575 21,3 L21,13.5 C21,15.1568542 19.6568542,16.5 18,16.5 L6.75,16.5 Z M18,15 C18.8284271,15 19.5,14.3284271 19.5,13.5 L19.5,3 C19.5,2.17157288 18.8284271,1.5 18,1.5 L3,1.5 C2.17157288,1.5 1.5,2.17157288 1.5,3 L1.5,16.2344235 C1.5,16.3508573 1.52710882,16.4656921 1.57917961,16.5698337 C1.76442154,16.9403176 2.21492632,17.0904859 2.5854102,16.9052439 L6.39589803,15 L18,15 Z" id="形状结合" fill-opacity="0.3" fill-rule="nonzero"></path>
        </g>
    </g>
</svg>